<?xml version="1.0" standalone="no"?><!DOCTYPE svg PUBLIC "-//W3C//DTD SVG 1.1//EN" "http://www.w3.org/Graphics/SVG/1.1/DTD/svg11.dtd"><svg t="1667203864561" class="icon" viewBox="0 0 1024 1024" version="1.1" xmlns="http://www.w3.org/2000/svg" p-id="24660" xmlns:xlink="http://www.w3.org/1999/xlink" width="48" height="48"><path d="M513 98C847.766 98 924.888 168.55 928 493.91v4.026c-0.014 7.836-0.096 12.444-0.692 17.9-0.692 6.294-1.728 10.582-3.804 19.194-61.56 259.2-280.124 355.862-370.734 385.328-15.56 5.082-23.516 7.642-39.77 7.642-16.254 0-24.208-2.56-39.77-7.642-90.61-29.466-309.176-126.126-370.734-385.362-2.076-8.578-3.112-12.866-3.804-19.16-0.596-5.456-0.68-10.064-0.69-17.9L98 493.91C101.112 168.55 178.234 98 513 98z m0 69.444c-169.804 0-245.196 19.85-284.274 56.992-38.042 36.036-59.83 105.964-61.56 270.132v4.184l0.002 0.506v0.952c0.012 6.06 0.068 6.76 0.344 7.81 0 0.934 0 1.556 0.346 2.594 0.346 1.626 0.692 3.666 1.73 8.3C222.5 741.804 410.98 827.086 494.324 854.3c4.15 1.35 6.918 2.18 8.992 2.836 2.076 0.624 3.114 0.9 3.804 1.004v0.034c0.692 0.104 1.73 0.38 5.88 0.38s5.188-0.276 5.88-0.38v-0.034c0.69-0.104 1.728-0.38 3.804-1.004 2.074-0.656 4.84-1.486 8.99-2.836 83.346-27.216 271.826-112.5 324.74-335.388 1.036-4.634 1.38-6.674 1.728-8.266 0.346-1.072 0.346-1.66 0.346-2.628 0.276-1.052 0.332-1.748 0.342-7.81l0.002-0.952v-4.69c-1.728-164.168-23.516-234.096-61.558-270.132-39.08-37.14-114.47-56.992-284.274-56.992z" fill="#f73c24" p-id="24661"></path><path d="M641.304 435.084c13.488-13.556 13.488-35.552 0-49.108-13.488-13.558-35.62-13.558-49.108 0L513 465.62l-79.196-79.644c-13.488-13.558-35.62-13.558-49.108 0-13.488 13.556-13.488 35.552 0 49.108l79.54 79.646-79.54 79.61c-13.488 13.556-13.488 35.552 0 49.108 13.488 13.558 35.62 13.558 49.108 0L513 563.84l79.196 79.61c13.488 13.558 35.62 13.558 49.108 0 13.488-13.556 13.488-35.552 0-49.108l-79.54-79.61 79.54-79.646z" fill="#f73c24" p-id="24662"></path></svg>