<?xml version="1.0" standalone="no"?><!DOCTYPE svg PUBLIC "-//W3C//DTD SVG 1.1//EN" "http://www.w3.org/Graphics/SVG/1.1/DTD/svg11.dtd"><svg t="1668759539299" class="icon" viewBox="0 0 1024 1024" version="1.1" xmlns="http://www.w3.org/2000/svg" p-id="5279" xmlns:xlink="http://www.w3.org/1999/xlink" width="64" height="64"><path d="M933.236364 460.8L563.2 90.763636c-27.927273-27.927273-74.472727-27.927273-100.072727 0l-372.363637 370.036364c-20.945455 20.945455-25.6 51.2-13.963636 76.8S111.709091 581.818182 141.963636 581.818182h37.236364v276.945454c0 53.527273 41.890909 95.418182 95.418182 95.418182h474.763636c53.527273 0 95.418182-41.890909 95.418182-95.418182v-88.436363c0-13.963636-9.309091-23.272727-23.272727-23.272728s-23.272727 9.309091-23.272728 23.272728v88.436363c0 25.6-20.945455 48.872727-48.872727 48.872728h-88.436363V670.254545c0-13.963636-9.309091-23.272727-23.272728-23.272727H386.327273c-13.963636 0-23.272727 9.309091-23.272728 23.272727V907.636364h-88.436363c-25.6 0-48.872727-20.945455-48.872727-48.872728V558.545455c0-13.963636-9.309091-23.272727-23.272728-23.272728H141.963636c-16.290909 0-20.945455-11.636364-23.272727-16.290909-2.327273-4.654545-4.654545-16.290909 4.654546-27.927273l372.363636-367.70909c9.309091-9.309091 25.6-9.309091 34.909091 0l370.036363 370.036363c11.636364 11.636364 6.981818 23.272727 4.654546 27.927273-2.327273 4.654545-6.981818 16.290909-23.272727 16.290909h-60.509091c-13.963636 0-23.272727 9.309091-23.272728 23.272727v97.745455c0 13.963636 9.309091 23.272727 23.272728 23.272727s23.272727-9.309091 23.272727-23.272727V581.818182h37.236364c30.254545 0 53.527273-16.290909 65.163636-44.218182 11.636364-25.6 6.981818-55.854545-13.963636-76.8z m-523.636364 232.727273h207.127273V907.636364h-207.127273v-214.109091z" fill="#8a8a8a" p-id="5280"></path></svg>