<?xml version="1.0" standalone="no"?><!DOCTYPE svg PUBLIC "-//W3C//DTD SVG 1.1//EN" "http://www.w3.org/Graphics/SVG/1.1/DTD/svg11.dtd"><svg t="1669181552351" class="icon" viewBox="0 0 1024 1024" version="1.1" xmlns="http://www.w3.org/2000/svg" p-id="3543" xmlns:xlink="http://www.w3.org/1999/xlink" width="64" height="64"><path d="M512 85.333333c235.648 0 426.666667 191.018667 426.666667 426.666667s-191.018667 426.666667-426.666667 426.666667S85.333333 747.648 85.333333 512 276.352 85.333333 512 85.333333z m0 64a362.666667 362.666667 0 1 0 0 725.333334 362.666667 362.666667 0 0 0 0-725.333334z m8.533333 542.848l-2.218666 0.512a32.085333 32.085333 0 0 1-18.773334-1.877333l-1.152-0.512a31.744 31.744 0 0 1-2.56-1.322667l-1.408-0.896a32.128 32.128 0 0 1-5.034666-4.138666l3.669333 3.157333a32.426667 32.426667 0 0 1-3.669333-3.157333l-150.869334-150.826667a32 32 0 0 1 41.685334-48.341333l3.584 3.072 96.213333 96.213333V362.666667a32 32 0 0 1 63.701333-4.352l0.298667 4.352v221.354666l96.213333-96.170666 3.584-3.072a32 32 0 0 1 41.685334 48.341333L534.613333 683.946667a32.170667 32.170667 0 0 1-3.456 3.029333l3.456-2.986667a32.128 32.128 0 0 1-6.442666 4.992l-0.682667 0.384a31.744 31.744 0 0 1-3.029333 1.450667l-1.450667 0.597333a31.872 31.872 0 0 1-1.450667 0.426667l-0.128 0.085333-0.938666 0.256z" p-id="3544" fill="#7260f6"></path></svg>