<?xml version="1.0" standalone="no"?><!DOCTYPE svg PUBLIC "-//W3C//DTD SVG 1.1//EN" "http://www.w3.org/Graphics/SVG/1.1/DTD/svg11.dtd"><svg t="1668934673042" class="icon" viewBox="0 0 1024 1024" version="1.1" xmlns="http://www.w3.org/2000/svg" p-id="8543" xmlns:xlink="http://www.w3.org/1999/xlink" width="64" height="64"><path d="M511.970836 499.271094c-67.470671 0-124.724653 53.072753-130.051985 119.469975-0.358157 1.096984-0.775666 2.648316-0.775666 4.466732l0 31.441083c0 7.708566 6.224772 13.96199 13.876032 13.96199l31.203676 0c7.65126 0 13.931291-6.252401 13.931291-13.96199l-0.116657-9.052167c-0.535189-2.594081-0.35918-5.598508-0.11768-8.724709 0.11768-1.935072 0.234337-3.840468 0.234337-5.808286 0-39.924291 32.185027-72.467475 71.816652-72.467475 39.627533 0 71.870888 32.544207 71.870888 72.467475 0 31.771611-20.661575 59.697637-50.166563 69.136613l0-45.552475c0-7.68503-6.251378-13.96506-13.902638-13.96506l-31.174 0c-7.65433 0-13.906731 6.281053-13.906731 13.96506l0 94.259804c0 7.68503 6.252401 13.96506 13.906731 13.96506l31.174 0c1.279133 0 2.52859-0.208754 3.839445-0.596588 66.899666-5.985318 119.213126-63.475683 119.241778-131.214461C642.853745 558.38647 584.141552 499.271094 511.970836 499.271094" p-id="8544" fill="#a4579d"></path><path d="M806.553061 336.037383l-76.131935-0.090051 0-55.245232c0-104.908328-83.48439-190.268438-186.147584-190.268438L508.27977 90.433662c-101.113909 0-184.302563 83.84357-185.969529 187.18624l-0.177032 1.533936c0 1.057075 0.118704 1.696642 0 1.548262l0.357134 6.104021 0.952698 0c3.393283 12.400425 14.736633 21.497617 27.868721 21.497617 13.219069 0 24.473391-9.097192 27.836999-21.497617l0.983397 0 0.23843-5.819542c3.333932-74.213235 59.962673-132.331911 128.97956-132.331911l33.853016 0c71.311139 0 129.308041 62.390979 129.308041 139.030473l0 48.352241L375.188566 336.037383l0.089028-0.090051-157.800979 0.090051c-48.680722 0-88.307232 40.46255-88.307232 90.124624l0 417.338037c0 49.665143 39.627533 90.066295 88.307232 90.066295L806.553061 933.566338c48.708352 0 88.277556-40.400129 88.277556-90.066295L894.830617 426.162006C894.829594 376.499933 855.260389 336.037383 806.553061 336.037383M839.364351 430.584736l0 408.480298c0 21.019733-16.645099 38.081317-37.128619 38.081317L221.764268 877.146351c-20.484543 0-37.157271-17.061584-37.157271-38.081317L184.606996 430.584736c0-20.976754 16.672728-38.081317 37.157271-38.081317l580.471464 0C822.719252 392.503419 839.364351 409.609005 839.364351 430.584736" p-id="8545" fill="#a4579d"></path></svg>