<?xml version="1.0" standalone="no"?><!DOCTYPE svg PUBLIC "-//W3C//DTD SVG 1.1//EN" "http://www.w3.org/Graphics/SVG/1.1/DTD/svg11.dtd"><svg t="1668759605487" class="icon" viewBox="0 0 1024 1024" version="1.1" xmlns="http://www.w3.org/2000/svg" p-id="8204" xmlns:xlink="http://www.w3.org/1999/xlink" width="64" height="64"><path d="M648.8576 451.3792c-55.9616 0-101.4784-45.5168-101.4784-101.4784s45.5168-101.4784 101.4784-101.4784 101.4784 45.5168 101.4784 101.4784-45.5168 101.4784-101.4784 101.4784z m0-172.1856c-39.0144 0-70.7584 31.744-70.7584 70.7584s31.744 70.7584 70.7584 70.7584 70.7584-31.744 70.7584-70.7584-31.744-70.7584-70.7584-70.7584z" fill="#FF4D7C" p-id="8205"></path><path d="M67.5328 431.1552c8.4992 0 15.36-6.8608 15.36-15.36v-27.5968c0-8.4992-6.8608-15.36-15.36-15.36s-15.36 6.8608-15.36 15.36v27.5968c0 8.4992 6.8608 15.36 15.36 15.36z" fill="#4C35D3" p-id="8206"></path><path d="M830.208 126.8224H186.3168c-73.984 0-134.144 60.16-134.144 134.144v30.0544c0 8.4992 6.8608 15.36 15.36 15.36s15.36-6.8608 15.36-15.36v-30.0544c0-57.0368 46.3872-103.424 103.424-103.424h643.8912c57.0368 0 103.424 46.3872 103.424 103.424v215.9616l-371.6608 154.4192-148.8896-152.1664c-21.3504-21.8112-55.04-26.88-81.8688-12.3392l-248.32 134.5536V479.1808c0-8.4992-6.8608-15.36-15.36-15.36s-15.36 6.8608-15.36 15.36V757.9136c0 73.984 60.16 134.144 134.144 134.144H830.2592c73.984 0 134.144-60.16 134.144-134.144V260.9152c-0.0512-73.9328-60.2112-134.0928-134.1952-134.0928zM190.6688 861.3376c-3.5328 0-7.0144-0.2048-10.4448-0.512-0.3072-0.0512-0.6144-0.0512-0.9728-0.1024-3.0208-0.3072-5.9904-0.8192-8.9088-1.3824l-2.4576-0.4608c-2.5088-0.5632-4.9664-1.1776-7.3728-1.8944l-3.1232-0.9216c-2.304-0.768-4.5568-1.5872-6.8096-2.5088-0.9728-0.3584-1.8944-0.768-2.8672-1.1776-2.3552-1.024-4.7104-2.1504-7.0144-3.3792-0.768-0.4096-1.5872-0.8192-2.3552-1.2288-2.4576-1.3824-4.8128-2.816-7.1168-4.352-0.512-0.3584-1.024-0.6656-1.4848-1.024-2.5088-1.7408-4.9664-3.5328-7.2704-5.4784l-0.7168-0.5632c-2.5088-2.0992-4.9664-4.3008-7.2704-6.6048 0-0.0512-0.0512-0.0512-0.0512-0.1024a107.34592 107.34592 0 0 1-31.5392-76.1344v-117.248l262.9632-142.4896c14.848-8.0384 33.4848-5.2224 45.312 6.8096l353.0752 360.6528H190.6688z m596.5312 0l-202.0352-206.3872 348.5184-144.7936v243.456c0 59.4432-48.3328 107.776-107.776 107.776h-38.7072z" fill="#4C35D3" p-id="8207"></path></svg>