<?xml version="1.0" standalone="no"?><!DOCTYPE svg PUBLIC "-//W3C//DTD SVG 1.1//EN" "http://www.w3.org/Graphics/SVG/1.1/DTD/svg11.dtd"><svg t="1668759579231" class="icon" viewBox="0 0 1026 1024" version="1.1" xmlns="http://www.w3.org/2000/svg" p-id="7087" xmlns:xlink="http://www.w3.org/1999/xlink" width="64.125" height="64"><path d="M514.56 0C439.296 0 366.592 15.872 299.008 47.616c-12.8 6.144-18.432 20.992-12.288 33.792 6.144 12.8 20.992 18.432 33.792 12.288 60.928-28.16 126.464-42.496 194.048-42.496 253.952 0 460.8 206.848 460.8 460.8 0 93.696-28.16 181.248-76.8 254.464-66.56-84.48-158.208-144.384-260.608-170.496 64.512-40.96 107.008-112.64 107.008-194.56 0-126.976-103.424-230.4-230.4-230.4s-230.4 103.424-230.4 230.4c0 82.432 43.52 154.624 108.544 195.584-102.4 27.136-194.048 87.552-259.584 173.056-50.176-73.728-79.36-162.816-79.36-258.048 0-71.68 15.872-139.776 47.104-203.776 6.144-12.8 1.024-28.16-11.776-34.304-12.8-6.144-28.16-1.024-34.304 11.776C20.48 356.352 2.56 432.64 2.56 512c0 282.112 229.888 512 512 512s512-229.888 512-512S796.672 0 514.56 0z m-179.2 401.408c0-98.816 80.384-179.2 179.2-179.2s179.2 80.384 179.2 179.2-80.384 179.2-179.2 179.2-179.2-80.384-179.2-179.2z m179.2 571.392c-139.776 0-264.704-62.464-349.184-160.768 81.408-113.152 211.456-180.224 351.744-180.224 138.752 0 267.776 66.048 349.696 177.152-84.48 99.84-210.944 163.84-352.256 163.84z" p-id="7088" fill="#8a8a8a"></path></svg>