<?xml version="1.0" standalone="no"?><!DOCTYPE svg PUBLIC "-//W3C//DTD SVG 1.1//EN" "http://www.w3.org/Graphics/SVG/1.1/DTD/svg11.dtd"><svg t="1667204012744" class="icon" viewBox="0 0 1024 1024" version="1.1" xmlns="http://www.w3.org/2000/svg" p-id="29723" xmlns:xlink="http://www.w3.org/1999/xlink" width="48" height="48"><path d="M510.979252 64.514339c-246.851131 0-446.951495 200.107527-446.951495 446.952518 0 246.844991 200.101387 446.951495 446.951495 446.951495 246.838851 0 446.952518-200.107527 446.952518-446.951495C957.93177 264.621866 757.818103 64.514339 510.979252 64.514339L510.979252 64.514339zM477.282802 753.687528c-71.621201-88.456634-155.88228-155.85772-214.849276-176.937828l139.015124-84.23038 67.407226 130.588197c0 0 109.531626-265.402649 282.256502-353.859283-4.212952 63.180971-21.056572 117.952412 8.414647 185.359638C683.705152 471.437166 527.834128 661.016919 477.282802 753.687528L477.282802 753.687528zM477.282802 753.687528" p-id="29724" fill="#08af44"></path></svg>