<?xml version="1.0" standalone="no"?><!DOCTYPE svg PUBLIC "-//W3C//DTD SVG 1.1//EN" "http://www.w3.org/Graphics/SVG/1.1/DTD/svg11.dtd"><svg t="1668508132210" class="icon" viewBox="0 0 1024 1024" version="1.1" xmlns="http://www.w3.org/2000/svg" p-id="4383" width="64" height="64" xmlns:xlink="http://www.w3.org/1999/xlink"><path d="M192 0h448.1536L960 320v576c0 70.6944-57.3056 128-128 128H192C121.3056 1024 64 966.6944 64 896V128C64 57.3056 121.3056 0 192 0z" fill="#BCCBD7" p-id="4384"></path><path d="M540.5056 656v-8.064c0-13.824 2.7904-25.9072 8.384-37.4272a88.832 88.832 0 0 1 22.3616-28.7872c26.8288-24.1792 43.0336-39.7184 48.064-45.4784C632.7296 517.8112 640 494.208 640 465.408c0-35.1232-11.1744-62.7584-33.536-82.9056-22.3616-20.736-51.9808-30.5152-88.32-30.5152-41.3568 0-73.7792 12.096-97.8176 36.2752C395.7376 412.4544 384 445.8496 384 488.448h63.7184c0-24.192 4.48-43.1872 13.9776-56.4352 10.624-16.128 27.9424-23.6032 52.544-23.6032 18.9952 0 34.0864 5.184 44.7104 16.128 10.0608 10.9312 15.6544 25.9072 15.6544 44.9024 0 14.4-5.0304 28.2112-15.104 40.8832l-6.6944 8.064c-36.3392 33.3824-58.1376 57.5744-65.408 73.1136-7.808 15.552-11.1744 34.5472-11.1744 56.4224v8.064h64.2816zM503.744 768c11.3536 0 20.6464-3.712 28.3904-11.136 7.7312-7.4112 11.8656-17.472 11.8656-29.1328 0-11.648-4.1344-21.184-11.3536-28.608-7.744-7.424-17.5488-11.1232-28.9024-11.1232s-20.6464 3.712-28.3904 11.136c-7.744 7.4112-11.3536 16.9472-11.3536 28.5952 0 11.648 3.6096 21.1968 11.3536 28.608 7.744 7.424 17.024 11.6608 28.3904 11.6608z" fill="#8497A6" opacity=".9" p-id="4385"></path><path d="M640 0l320 320H768c-70.6944 0-128-57.3056-128-128V0z" fill="#8497A6" p-id="4386"></path></svg>