<?xml version="1.0" standalone="no"?><!DOCTYPE svg PUBLIC "-//W3C//DTD SVG 1.1//EN" "http://www.w3.org/Graphics/SVG/1.1/DTD/svg11.dtd"><svg t="1667203541531" class="icon" viewBox="0 0 1024 1024" version="1.1" xmlns="http://www.w3.org/2000/svg" p-id="13585" xmlns:xlink="http://www.w3.org/1999/xlink" width="48" height="48"><path d="M803.84 897.536H303.104c-43.008 0-77.312-34.816-77.312-77.312 0-6.144 5.12-11.264 11.264-11.264h632.832c6.144 0 11.264 5.12 11.264 11.264 0 43.008-34.816 77.312-77.312 77.312zM553.472 180.736c-12.288 0-22.016-9.728-22.016-22.016V97.28c0-12.288 9.728-22.016 22.016-22.016s22.016 9.728 22.016 22.016v61.44c0.512 12.288-9.728 22.016-22.016 22.016zM318.976 270.848c-10.752 6.144-24.064 2.56-30.208-8.192l-30.72-53.248c-6.144-10.752-2.56-24.064 8.192-30.208 10.752-6.144 24.064-2.56 30.208 8.192l30.72 53.248c6.144 10.752 2.56 24.064-8.192 30.208zM256 436.736c-3.584 11.776-15.872 18.432-27.648 14.848l-58.88-17.92c-11.776-3.584-18.432-15.872-14.848-27.648 3.584-11.776 15.872-18.432 27.648-14.848l58.88 17.92c11.776 3.584 18.432 15.872 14.848 27.648zM951.808 404.992c4.096 11.776-2.56 24.064-14.336 28.16l-58.368 19.456c-11.776 4.096-24.064-2.56-28.16-14.336-4.096-11.776 2.56-24.064 14.336-28.16l58.368-19.456c11.776-3.584 24.576 2.56 28.16 14.336zM841.216 179.2c10.752 6.144 14.336 19.456 8.192 30.208l-30.72 53.248c-6.144 10.752-19.456 14.336-30.208 8.192-10.752-6.144-14.336-19.456-8.192-30.208l30.72-53.248c6.144-10.24 19.456-14.336 30.208-8.192zM553.472 239.104c-125.44 0-226.816 101.376-226.816 226.816v258.56c0 18.432 14.848 33.28 33.28 33.28H747.52c18.432 0 33.28-14.848 33.28-33.28V465.92c-0.512-125.44-101.888-226.816-227.328-226.816z m68.096 254.464L563.2 629.248c-1.536 4.096-7.68 3.072-8.192-1.024l-11.264-82.432c-0.512-2.048-2.048-3.584-4.096-3.584h-49.664c-3.072 0-5.12-3.072-4.096-6.144l58.368-135.68c1.536-4.096 7.68-3.072 8.192 1.024l11.264 82.432c0.512 2.048 2.048 3.584 4.096 3.584h49.664c3.072 0 5.12 3.072 4.096 6.144z" p-id="13586" fill="#fe8533"></path></svg>